<svg id="user-add" xmlns="http://www.w3.org/2000/svg" viewBox="0 0 31 32"><defs><style>.cls-1{fill:#ef5d36;}</style></defs><title>mail</title><path class="cls-1" d="M217,183h-1v-1a1,1,0,0,0-2,0v1h-1a1,1,0,0,0,0,2h1v1a1,1,0,0,0,2,0v-1h1A1,1,0,0,0,217,183Z" transform="translate(-192 -160)"/><path class="cls-1" d="M215,176a8,8,0,0,0-6.11,2.85l-0.67-.25a1.88,1.88,0,0,1-1.22-1.76v-0.88a9.19,9.19,0,0,0,2.78-3.95,1.56,1.56,0,0,0,1.51-1.18l0.4-1.59a1,1,0,0,0-1-1.23c0-.41.06-0.81,0.06-1.2,0-4.38-2.42-6.8-6.8-6.8s-6.8,2.42-6.8,6.8c0,0.39,0,.79.06,1.2a1,1,0,0,0-1,1.23l0.4,1.59a1.56,1.56,0,0,0,1.51,1.18,9.19,9.19,0,0,0,2.78,3.95v0.88a1.88,1.88,0,0,1-1.22,1.76l-4.68,1.77a4.79,4.79,0,0,0-3.1,4.49V188a2,2,0,0,0,2,2h15.72A8,8,0,1,0,215,176Zm0,13a5,5,0,1,1,5-5A5,5,0,0,1,215,189Z" transform="translate(-192 -160)"/></svg>