<svg id="link" xmlns="http://www.w3.org/2000/svg" viewBox="0 0 28.71 29.81"><defs><style>.cls-1{fill:#ef5d36;}</style></defs><title>pass</title><path class="cls-1" d="M462.46,437.93l-0.14.15-0.07.09-2.33,2.55a3,3,0,0,1-4.41.07l0,0a3,3,0,0,1-.32-4.4l2.33-2.55,0.1-.1,0.12-.13,4.13-4.52a6.82,6.82,0,0,0-7.56,1.43l-2.71,3c-2.51,2.75-2,7.34,1.22,10.25l0,0c3.17,2.9,7.8,3.05,10.31.31l2.71-3a6.8,6.8,0,0,0,.75-7.65Z" transform="translate(-450 -416.19)"/><path class="cls-1" d="M475.89,418.45c-3.17-2.9-7.81-3-10.32-.29l-2.71,3a6.82,6.82,0,0,0-.75,7.66l4.31-4.71,0,0h0l2.33-2.55a3.22,3.22,0,0,1,4.75,4.35l-2.27,2.48-0.09.1-4.31,4.71a6.82,6.82,0,0,0,7.56-1.43l2.71-3C479.64,426,479.09,421.38,475.89,418.45Z" transform="translate(-450 -416.19)"/><path class="cls-1" d="M458.47,437.39l0.12,0.11a2.28,2.28,0,0,0,3.23-.15l8.71-9.52a2.27,2.27,0,0,0-.14-3.23l-0.12-.11a2.27,2.27,0,0,0-3.23.15l-8.71,9.52A2.27,2.27,0,0,0,458.47,437.39Z" transform="translate(-450 -416.19)"/></svg>